<?xml version="1.0" encoding="UTF-8"?><!DOCTYPE svg PUBLIC "-//W3C//DTD SVG 1.1//EN" "http://www.w3.org/Graphics/SVG/1.1/DTD/svg11.dtd"><!-- Creator: CorelDRAW X6 --><svg xmlns="http://www.w3.org/2000/svg" xml:space="preserve" width="100%" height="100%" version="1.1" style="shape-rendering:geometricPrecision; text-rendering:geometricPrecision; image-rendering:optimizeQuality; fill-rule:evenodd; clip-rule:evenodd" viewBox="8350 0 24500 24500" xmlns:xlink="http://www.w3.org/1999/xlink"><defs><style type="text/css"><![CDATA[.fil0 {fill: #C4A976;fill-rule: nonzero}]]></style></defs><g id="Layer_x0020_1"><metadata id="CorelCorpID_0Corel-Layer" /><path class="fil0" d="M17236 15c-432,32 -804,188 -1193,502 -243,196 -510,484 -981,1059 -643,785 -918,1044 -1396,1313 -204,115 -469,232 -1094,480 -594,236 -902,375 -1129,509 -684,403 -1011,895 -1150,1733 -40,241 -66,514 -99,1042 -64,1035 -133,1414 -340,1875 -118,263 -242,476 -607,1046 -301,469 -443,710 -558,947 -393,807 -397,1429 -16,2236 104,220 261,489 536,917 343,533 445,705 575,965 271,543 342,893 412,2021 32,521 57,786 98,1035 92,561 271,966 565,1279 332,353 734,578 1747,978 614,243 1040,440 1264,586 311,203 630,510 1014,976 533,647 644,777 811,949 378,390 707,616 1076,739 218,73 369,95 649,96 400,1 656,-43 1576,-276 868,-219 1114,-261 1535,-262 435,-1 692,43 1604,275 861,219 1117,263 1514,263 518,-1 854,-116 1299,-448 277,-207 533,-476 1048,-1105 902,-1100 1128,-1265 2452,-1785 542,-212 753,-304 996,-430 816,-423 1178,-919 1330,-1821 43,-255 70,-543 105,-1111 87,-1401 175,-1668 939,-2856 285,-443 424,-678 546,-922 420,-846 422,-1474 8,-2312 -135,-273 -227,-429 -537,-913 -318,-496 -429,-681 -552,-928 -264,-529 -339,-890 -404,-1958 -34,-550 -60,-832 -98,-1069 -128,-793 -408,-1265 -982,-1650 -315,-212 -558,-326 -1393,-655 -989,-389 -1309,-574 -1743,-1007 -193,-193 -317,-334 -681,-778 -352,-431 -485,-583 -673,-771 -445,-445 -863,-680 -1341,-752 -154,-23 -507,-20 -718,7 -267,34 -479,80 -1106,238 -932,236 -1165,276 -1614,276 -446,0 -658,-36 -1576,-270 -299,-76 -632,-156 -743,-179 -360,-74 -707,-104 -972,-84zm3356 4161c-5,5 -13,5 -18,0 -5,-5 -1,-9 9,-9 10,0 14,4 9,9zm783 28c374,59 693,183 1007,390 167,110 378,315 474,461 337,507 560,1162 560,1643l0 69 -121 -10c-225,-18 -418,-73 -569,-163 -101,-59 -301,-255 -378,-370 -137,-204 -170,-315 -209,-711 -36,-367 -114,-624 -257,-854 -135,-217 -381,-381 -688,-458l-132 -33 90 8c49,4 150,17 222,28zm-954 11c-242,63 -449,199 -612,402 -173,215 -217,325 -254,640 -25,211 -27,350 -27,2826 0,1583 5,2640 13,2696 35,242 177,596 300,753 121,154 363,300 605,365l131 35 -111 -8c-61,-5 -187,-24 -282,-43 -614,-123 -1151,-462 -1419,-895 -258,-417 -449,-912 -502,-1299 -23,-173 -34,-2826 -13,-3087 11,-131 32,-250 70,-401 180,-708 416,-1148 774,-1439 272,-222 631,-408 954,-497 138,-38 370,-80 444,-80 43,0 28,7 -72,33zm1049 7787c586,112 1132,445 1398,852 231,353 419,803 510,1222 30,137 30,161 35,1687 3,1074 0,1585 -10,1667 -8,65 -38,203 -65,306 -166,632 -354,1007 -656,1307 -311,309 -783,558 -1217,643 -154,30 -354,55 -364,45 -4,-4 4,-8 18,-8 64,0 219,-50 346,-111 163,-79 283,-182 410,-350 157,-207 198,-318 237,-632 27,-219 28,-293 23,-2882l-5 -2657 -37 -128c-77,-265 -183,-489 -291,-615 -130,-152 -388,-307 -601,-361l-111 -28 116 8c63,4 183,20 263,36zm-3021 5158c304,23 569,161 774,403 217,257 271,419 313,951 19,239 162,629 295,804 135,178 391,329 662,390 197,45 -39,26 -292,-23 -474,-92 -925,-322 -1221,-622 -313,-318 -665,-1110 -715,-1611 -11,-108 -19,-269 -16,-304 1,-6 21,-8 46,-4 25,4 94,11 153,15z" /></g></svg>